<svg width="99" height="28" viewBox="0 0 99 28" fill="none" xmlns="http://www.w3.org/2000/svg">
<g clip-path="url(#clip0_35_10)">
<path d="M29.0347 0H0.659884C0.48487 0 0.317028 0.0655526 0.193274 0.182238C0.0695226 0.298922 0 0.457182 0 0.6222V27.3767C0 27.5417 0.0695226 27.7002 0.193274 27.8169C0.317028 27.9334 0.48487 27.9989 0.659884 27.9989H29.0347C29.21 27.9989 29.3776 27.9334 29.5015 27.8169C29.6252 27.7002 29.6948 27.5417 29.6948 27.3767V0.6222C29.6948 0.457182 29.6252 0.298922 29.5015 0.182238C29.3776 0.0655526 29.21 0 29.0347 0ZM19.7965 18.0438C19.7965 18.2088 19.727 18.3671 19.6032 18.4838C19.4795 18.6004 19.3116 18.666 19.1366 18.666H10.5581C10.3831 18.666 10.2153 18.6004 10.0915 18.4838C9.96777 18.3671 9.89824 18.2088 9.89824 18.0438V9.9552C9.89824 9.79018 9.96777 9.63192 10.0915 9.51524C10.2153 9.39855 10.3831 9.333 10.5581 9.333H19.1366C19.3116 9.333 19.4795 9.39855 19.6032 9.51524C19.727 9.63192 19.7965 9.79018 19.7965 9.9552V18.0438Z" fill="black"/>
<path d="M88.4365 9.33411H79.8579C79.4936 9.33411 79.198 9.61266 79.198 9.95631V18.0449C79.198 18.3885 79.4936 18.6671 79.8579 18.6671H88.4365C88.801 18.6671 89.0963 18.3885 89.0963 18.0449V9.95631C89.0963 9.61266 88.801 9.33411 88.4365 9.33411Z" fill="black"/>
<path d="M78.5405 0.000488281H69.9621C69.5976 0.000488281 69.3022 0.279058 69.3022 0.622688V8.71129C69.3022 9.05492 69.5976 9.33349 69.9621 9.33349H78.5405C78.905 9.33349 79.2006 9.05492 79.2006 8.71129V0.622688C79.2006 0.279058 78.905 0.000488281 78.5405 0.000488281Z" fill="black"/>
<path d="M98.3402 0.000488281H89.7615C89.3973 0.000488281 89.1017 0.279058 89.1017 0.622688V8.71129C89.1017 9.05492 89.3973 9.33349 89.7615 9.33349H98.3402C98.7046 9.33349 99 9.05492 99 8.71129V0.622688C99 0.279058 98.7046 0.000488281 98.3402 0.000488281Z" fill="black"/>
<path d="M78.5405 18.6669H69.9621C69.5976 18.6669 69.3022 18.9454 69.3022 19.2891V27.3778C69.3022 27.7213 69.5976 28 69.9621 28H78.5405C78.905 28 79.2006 27.7213 79.2006 27.3778V19.2891C79.2006 18.9454 78.905 18.6669 78.5405 18.6669Z" fill="black"/>
<path d="M98.3402 18.6669H89.7615C89.3973 18.6669 89.1017 18.9454 89.1017 19.2891V27.3778C89.1017 27.7213 89.3973 28 89.7615 28H98.3402C98.7046 28 99 27.7213 99 27.3778V19.2891C99 18.9454 98.7046 18.6669 98.3402 18.6669Z" fill="black"/>
<path d="M63.6813 0.000488281H55.103C54.7385 0.000488281 54.4429 0.279058 54.4429 0.622688V8.71129C54.4429 9.05492 54.7385 9.33349 55.103 9.33349H63.6813C64.0458 9.33349 64.3412 9.05492 64.3412 8.71129V0.622688C64.3412 0.279058 64.0458 0.000488281 63.6813 0.000488281Z" fill="black"/>
<path d="M63.6813 18.6669H55.103C54.7385 18.6669 54.4429 18.9454 54.4429 19.2891V27.3778C54.4429 27.7213 54.7385 28 55.103 28H63.6813C64.0458 28 64.3412 27.7213 64.3412 27.3778V19.2891C64.3412 18.9454 64.0458 18.6669 63.6813 18.6669Z" fill="black"/>
<path d="M54.4401 9.9482C54.4401 9.78319 54.3705 9.62492 54.2468 9.50825C54.1231 9.39155 53.9552 9.326 53.7802 9.326H44.5418V0.6222C44.5418 0.457182 44.4721 0.298922 44.3485 0.182238C44.2248 0.0655526 44.0569 0 43.8819 0H35.3035C35.1283 0 34.9607 0.0655526 34.8367 0.182238C34.7131 0.298922 34.6434 0.457182 34.6434 0.6222V27.3628C34.6434 27.5278 34.7131 27.686 34.8367 27.8027C34.9607 27.9195 35.1283 27.985 35.3035 27.985H43.8819C44.0569 27.985 44.2248 27.9195 44.3485 27.8027C44.4721 27.686 44.5418 27.5278 44.5418 27.3628V18.659H53.7802C53.9552 18.659 54.1231 18.5934 54.2468 18.4768C54.3705 18.3601 54.4401 18.2018 54.4401 18.0368V9.9482Z" fill="black"/>
</g>
<defs>
<clipPath id="clip0_35_10">
<rect width="99" height="28" fill="white"/>
</clipPath>
</defs>
</svg>
