<svg xmlns="http://www.w3.org/2000/svg" data-name="Слой 1" viewBox="0 0 1464.54 240.85"><path d="M1045.66 209.42c-5.31 15.59-20.95 26.29-37.01 28.07-34.26 3.59-66.99-13.96-85.66-42.66-13.65-19.98-26.36-43.16-39.26-63.18-16.22-23.7-20.91-10.89-14.34 9.84 8.36 27.49 21.31 69.4-8.66 87.7-20.09 10.93-51.75 9.51-67.92-8.3-7.5-8.42-9.54-20.79-9.66-31.82-.52-13.97.22-30.72.21-43.09-.15-36.43-.27-68.71 4.26-107.76C792.85 3.5 838.67-.34 866.44 7.06c32.16 8.27 45.36 36.93 59.19 64.77 5.52 11.22 22.44 46.46 32.11 47.27 9.89-1.08 6.4-25.45 4.67-35.54-1.72-7.88-4.72-16.97-6.91-25.23-2.96-8.96-4.13-19.87-.93-28.3 5.31-16.9 26.68-26.51 43.76-23.16 8.85 1.61 16.65 6.02 23.81 11.2 36.88 25.74 28.14 104.33 27.65 146.87-.64 14.4-.74 30.63-4.09 44.33l-.05.15ZM41.54 119.67s-47.87.45-40.83-55.82c1.98-15.83 15.55-33.32 29.05-42.6C46.93 8.76 70.37 5.86 91.11 4.2c45.51-3.3 165.16-.75 155.66 60.19-2.9 18.6-23.35 39.47-38.82 43.04m0 0s13.06 3.22 16.02 3.9c11.57 2.84 19.05 9.66 27.64 17.96 17.6 16.55 18.58 46.1 4.77 65.32-8.07 11.33-20.1 19.24-32.56 25.15l-.18.08c-26.23 11.69-54.42 16.89-82.75 19.2-29.06 1.95-65.04 5-92.14-7.62-22.31-10.39-37.95-50.84-7.23-111.76M161.4 74.8c-1.69-21.08-36.1-21.61-46.89-7.36-4.63 5.73-6.62 13.82-6.37 21.33.65 8.99-2.83 8.14 17.4 8 3.58-.02 7.25-.54 10.82-1.17 11.55-1.94 25.26-7.62 25.04-20.62v-.18Zm.9 97.09c15.04-11.94 7.57-29.16-9.07-34.14-12.23-3.86-27.36-3.98-40.19-.66-5.33 1.78-7.73-.49-7.7 11.87.02 7.22-.26 15.13 3.49 21.51 8.53 14.1 38.42 12.37 53.31 1.54l.16-.12ZM626.61 18.68c31.17 17.4 25.53 55.03 22.05 85.64-1.12 10.3-3.8 34.92-4.29 39.46-2.01 17.76-6.09 35.93-15.65 51.22-20.53 33.19-62.44 44.63-99.33 44.33-29.46-.37-59.82-4.77-85.58-19.12-21.55-11.65-34.54-33.04-41.4-55.81-9.2-31.21-7.88-62.54-2.89-96.02 3.43-19.56 3.35-47.68 20.99-59.05 22.74-14.13 55.15-12.43 74.68 6.7 21.68 22.52 4.61 51.14-2.09 76.24-10.02 32.88-9.75 67.87 28.48 71.87 11.47.94 24.17-3.09 31.49-12.3 3.47-4.4 5.59-9.6 6.97-15.16 7.15-29.19-4.61-54.78-7.68-82.41-1.78-13.58 3.73-27.32 15.59-34.83 17.62-11.09 40.4-11.14 58.48-.84l.18.1Zm832.55 191.44c-5.31 15.59-20.95 26.29-37.01 28.07-34.26 3.59-66.99-13.96-85.66-42.66-13.65-19.98-26.36-43.16-39.26-63.18-16.22-23.7-20.91-10.89-14.34 9.84 8.36 27.49 21.31 69.4-8.66 87.7-20.09 10.93-51.75 9.51-67.92-8.3-7.5-8.42-9.54-20.79-9.66-31.82-.52-13.97.22-30.72.21-43.09-.15-36.43-.27-68.71 4.26-107.76 5.23-34.72 51.05-38.56 78.82-31.16 32.16 8.27 45.36 36.93 59.19 64.77 5.52 11.22 22.44 46.46 32.11 47.27 9.89-1.08 6.4-25.45 4.67-35.54-1.72-7.88-4.72-16.97-6.91-25.23-2.96-8.96-4.13-19.87-.93-28.3 5.31-16.9 26.68-26.51 43.76-23.16 8.85 1.61 16.65 6.02 23.81 11.2 36.88 25.74 28.14 104.33 27.65 146.87-.64 14.4-.74 30.63-4.09 44.33l-.05.15Z"/></svg>