<svg width="326" height="47" viewBox="0 0 326 47" fill="none" xmlns="http://www.w3.org/2000/svg">
<g clip-path="url(#clip0_81_117)">
<mask id="mask0_81_117" style="mask-type:luminance" maskUnits="userSpaceOnUse" x="0" y="0" width="292" height="47">
<path d="M292 0H0V47H292V0Z" fill="white"/>
</mask>
<g mask="url(#mask0_81_117)">
<path d="M208.484 40.8669C207.425 43.909 204.307 45.997 201.104 46.3445C194.274 47.0451 187.748 43.6202 184.026 38.0196C181.304 34.1207 178.77 29.5972 176.198 25.6906C172.964 21.0657 172.029 23.5655 173.339 27.6108C175.006 32.9753 177.588 41.1536 171.612 44.7247C167.607 46.8577 161.294 46.5806 158.07 43.105C156.575 41.4621 156.168 39.048 156.144 36.8957C156.041 34.1694 156.188 30.9009 156.186 28.487C156.156 21.378 156.132 15.0787 157.036 7.45846C158.078 0.683117 167.214 -0.0662288 172.751 1.37782C179.163 2.99164 181.795 8.58444 184.552 14.0172C185.652 16.2067 189.026 23.0835 190.954 23.2416C192.926 23.0308 192.23 18.2752 191.885 16.3062C191.542 14.7685 190.944 12.9947 190.508 11.3828C189.917 9.6343 189.684 7.50529 190.322 5.86023C191.381 2.56234 195.641 0.687021 199.047 1.34075C200.811 1.65492 202.367 2.5155 203.794 3.52633C211.147 8.5493 209.405 23.8855 209.307 32.1869C209.179 34.9969 209.16 38.1641 208.491 40.8375L208.484 40.8669Z" fill="black" fill-opacity="0.8"/>
<path d="M8.28232 23.3527C8.28232 23.3527 -1.262 23.4405 0.141635 12.4599C0.536407 9.37078 3.24199 5.95773 5.93362 4.14682C9.35697 1.70949 14.0305 1.14358 18.1656 0.819643C27.2394 0.175674 51.0953 0.673289 49.2011 12.5653C48.623 16.1949 44.5455 20.2675 41.4611 20.9642M41.4611 20.9642C41.4611 20.9642 44.0651 21.5925 44.6553 21.7252C46.9621 22.2794 48.4533 23.6103 50.1662 25.23C53.6752 28.4596 53.8705 34.2261 51.1172 37.9767C49.508 40.1877 47.1095 41.7311 44.6252 42.8846L44.5893 42.9002C39.3596 45.1815 33.7391 46.1961 28.0907 46.647C22.2967 47.0274 15.1231 47.6225 9.71986 45.1597C5.27168 43.1323 2.15338 35.2389 8.27835 23.3508M32.1799 14.5967C31.8432 10.4831 24.9824 10.3797 22.8311 13.1605C21.9079 14.2786 21.5112 15.8573 21.561 17.3228C21.6906 19.0771 20.9968 18.9113 25.0302 18.884C25.744 18.8801 26.4758 18.7786 27.1875 18.6556C29.4902 18.2771 32.224 17.1687 32.1799 14.6318V14.5967ZM32.3594 33.5431C35.358 31.2131 33.8688 27.8527 30.5511 26.8809C28.1127 26.1276 25.096 26.1042 22.538 26.7521C21.4753 27.0994 20.9968 26.6565 21.0028 29.0684C21.0067 30.4772 20.9509 32.0209 21.6986 33.2661C23.3993 36.0173 29.3588 35.6798 32.3276 33.5666L32.3594 33.5431Z" fill="black" fill-opacity="0.8"/>
<path d="M124.933 3.64512C131.148 7.0406 130.024 14.3838 129.33 20.3571C129.106 22.3671 128.572 27.1715 128.474 28.0574C128.074 31.5232 127.26 35.0688 125.354 38.0527C121.261 44.5293 112.905 46.7618 105.55 46.7033C99.6757 46.6311 93.6225 45.7725 88.4865 42.9721C84.19 40.6988 81.6 36.5246 80.2323 32.0813C78.3979 25.9909 78.661 19.877 79.6561 13.3437C80.34 9.5267 80.3239 4.0393 83.8411 1.82054C88.375 -0.936821 94.8369 -0.605077 98.7308 3.128C103.053 7.52259 99.65 13.1076 98.3141 18.0056C96.3162 24.4219 96.3702 31.25 103.992 32.0305C106.279 32.2138 108.811 31.4275 110.271 29.6303C110.963 28.7716 111.385 27.7569 111.661 26.6719C113.086 20.9757 110.741 15.982 110.129 10.5902C109.774 7.94021 110.873 5.25895 113.238 3.79343C116.751 1.6293 121.293 1.61954 124.897 3.62952L124.933 3.64902V3.64512Z" fill="black" fill-opacity="0.8"/>
<path d="M290.927 41.0031C289.868 44.0452 286.75 46.1335 283.548 46.4807C276.717 47.1813 270.192 43.7564 266.469 38.1558C263.748 34.2569 261.214 29.7337 258.642 25.8268C255.408 21.202 254.472 23.7017 255.783 27.747C257.449 33.1115 260.031 41.2898 254.056 44.8609C250.05 46.9939 243.738 46.7169 240.514 43.2412C239.019 41.5983 238.612 39.1842 238.588 37.0319C238.484 34.3056 238.632 31.0371 238.63 28.6232C238.6 21.5142 238.576 15.215 239.479 7.5947C240.522 0.819347 249.658 0.0700014 255.194 1.51405C261.606 3.12788 264.238 8.72064 266.996 14.1534C268.096 16.3429 271.47 23.2197 273.398 23.3778C275.37 23.167 274.674 18.4114 274.329 16.4424C273.986 14.9047 273.388 13.1309 272.951 11.519C272.361 9.77053 272.128 7.64152 272.766 5.99646C273.824 2.69857 278.085 0.823252 281.491 1.47698C283.255 1.79115 284.81 2.65173 286.238 3.66256C293.591 8.68554 291.848 24.0218 291.751 32.3231C291.623 35.1331 291.603 38.3003 290.935 40.9737L290.927 41.0031Z" fill="black" fill-opacity="0.8"/>
</g>
</g>
<path d="M314 2.25C312.072 2.25 310.187 2.82183 308.583 3.89317C306.98 4.96452 305.73 6.48726 304.992 8.26884C304.254 10.0504 304.061 12.0108 304.437 13.9021C304.814 15.7934 305.742 17.5307 307.106 18.8943C308.469 20.2579 310.207 21.1865 312.098 21.5627C313.989 21.9389 315.95 21.7458 317.731 21.0078C319.513 20.2699 321.035 19.0202 322.107 17.4168C323.178 15.8134 323.75 13.9284 323.75 12C323.747 9.41498 322.719 6.93661 320.891 5.10872C319.063 3.28084 316.585 2.25273 314 2.25ZM314 20.25C312.368 20.25 310.773 19.7661 309.417 18.8596C308.06 17.9531 307.002 16.6646 306.378 15.1571C305.754 13.6496 305.59 11.9908 305.909 10.3905C306.227 8.79016 307.013 7.32015 308.166 6.16637C309.32 5.01259 310.79 4.22685 312.391 3.90852C313.991 3.59019 315.65 3.75357 317.157 4.37799C318.665 5.00242 319.953 6.05984 320.86 7.41655C321.766 8.77325 322.25 10.3683 322.25 12C322.248 14.1873 321.378 16.2843 319.831 17.8309C318.284 19.3775 316.187 20.2475 314 20.25ZM316.165 13.1447C316.754 12.8291 317.221 12.3258 317.492 11.7145C317.762 11.1033 317.821 10.4191 317.658 9.77069C317.496 9.12226 317.122 8.54668 316.595 8.13531C316.068 7.72394 315.418 7.50034 314.75 7.5H311.75C311.551 7.5 311.36 7.57902 311.22 7.71967C311.079 7.86032 311 8.05109 311 8.25V15.75C311 15.9489 311.079 16.1397 311.22 16.2803C311.36 16.421 311.551 16.5 311.75 16.5C311.949 16.5 312.14 16.421 312.28 16.2803C312.421 16.1397 312.5 15.9489 312.5 15.75V13.5H314.599L316.38 16.1663C316.491 16.3318 316.662 16.4468 316.858 16.4858C317.053 16.5249 317.255 16.4848 317.421 16.3744C317.587 16.264 317.701 16.0923 317.741 15.8972C317.78 15.702 317.739 15.4993 317.629 15.3337L316.165 13.1447ZM312.5 9H314.75C315.148 9 315.529 9.15804 315.811 9.43934C316.092 9.72064 316.25 10.1022 316.25 10.5C316.25 10.8978 316.092 11.2794 315.811 11.5607C315.529 11.842 315.148 12 314.75 12H312.5V9Z" fill="black"/>
<defs>
<clipPath id="clip0_81_117">
<rect width="292" height="47" fill="white"/>
</clipPath>
</defs>
</svg>
