<?xml version="1.0" encoding="UTF-8"?>
<svg id="_Слой_1" data-name="Слой_1" xmlns="http://www.w3.org/2000/svg" version="1.1" width="207.32" height="744.66" viewBox="0 0 103.66 372.33">
  <!-- Generator: Adobe Illustrator 30.3.0, SVG Export Plug-In . SVG Version: 2.1.3 Build 182)  -->
  <defs>
    <style>
      .st0, .st1 {
        fill: #ff9bac;
      }

      .st1 {
        stroke: #000;
        stroke-miterlimit: 10;
        stroke-width: 7px;
      }
    </style>
  </defs>
  <g>
    <rect class="st0" x="3.5" y="3.5" width="96.66" height="365.33" rx="2.86" ry="2.86"/>
    <path d="M96.66,7v358.33H7V7h89.66M97.3,0H6.36C2.85,0,0,2.85,0,6.36v359.61c0,3.51,2.85,6.36,6.36,6.36h90.93c3.51,0,6.36-2.85,6.36-6.36V6.36c0-3.51-2.85-6.36-6.36-6.36h0Z"/>
  </g>
  <line class="st1" y1="21.39" x2="103.66" y2="21.39"/>
  <line class="st1" y1="43.44" x2="103.66" y2="43.44"/>
  <line class="st1" y1="69.18" x2="103.66" y2="69.18"/>
  <line class="st1" y1="190.21" x2="103.66" y2="190.21"/>
  <line class="st1" y1="105.8" x2="103.66" y2="105.8"/>
  <line class="st1" y1="146.04" x2="103.66" y2="146.04"/>
  <line class="st1" x1="103.66" y1="359.03" y2="359.03"/>
  <line class="st1" x1="103.66" y1="336.98" y2="336.98"/>
  <line class="st1" x1="103.66" y1="311.23" y2="311.23"/>
  <line class="st1" x1="103.66" y1="274.62" y2="274.62"/>
  <line class="st1" x1="103.66" y1="234.37" y2="234.37"/>
</svg>