<svg width="715" height="1056" viewBox="0 0 715 1056" fill="none" xmlns="http://www.w3.org/2000/svg">
<path d="M351 599C351 615.569 337.569 629 321 629H206C189.431 629 176 642.431 176 659V662C176 678.569 162.569 692 146 692H30C13.4315 692 0 678.569 0 662V368C0 351.431 13.4315 338 30 338H38C54.5685 338 68 324.569 68 308C68 291.431 81.4315 278 98 278H321C337.569 278 351 291.431 351 308V599Z" stroke="#D9D9D9" stroke-opacity="0.3" stroke-width="1" fill="none" vector-effect="non-scaling-stroke"/>
<path d="M364 310C364 293.431 377.431 280 394 280L509 280C525.569 280 539 266.569 539 250L539 247C539 230.431 552.431 217 569 217L685 217C701.569 217 715 230.431 715 247L715 541C715 557.569 701.569 571 685 571L677 571C660.431 571 647 584.431 647 601C647 617.569 633.569 631 617 631L394 631C377.431 631 364 617.569 364 601L364 310Z" stroke="#D9D9D9" stroke-opacity="0.3" stroke-width="1" fill="none" vector-effect="non-scaling-stroke"/>
<path d="M487 321C487 337.569 473.569 351 457 351H342C325.431 351 312 364.431 312 381V384C312 400.569 298.569 414 282 414H166C149.431 414 136 400.569 136 384V90C136 73.4315 149.431 60 166 60H174C190.569 60 204 46.5685 204 30C204 13.4315 217.431 0 234 0H457C473.569 0 487 13.4315 487 30V321Z" stroke="#D9D9D9" stroke-opacity="0.3" stroke-width="1" fill="none" vector-effect="non-scaling-stroke"/>
<path d="M100 735C100 718.431 113.431 705 130 705L245 705C261.569 705 275 691.569 275 675L275 672C275 655.431 288.431 642 305 642L421 642C437.569 642 451 655.431 451 672L451 966C451 982.569 437.569 996 421 996L413 996C396.431 996 383 1009.43 383 1026C383 1042.57 369.569 1056 353 1056L130 1056C113.431 1056 100 1042.57 100 1026L100 735Z" stroke="#D9D9D9" stroke-opacity="0.3" stroke-width="1" fill="none" vector-effect="non-scaling-stroke"/>
<path d="M221 517C221 500.431 234.431 487 251 487L366 487C382.569 487 396 473.569 396 457L396 454C396 437.431 409.431 424 426 424L542 424C558.569 424 572 437.431 572 454L572 748C572 764.569 558.569 778 542 778L534 778C517.431 778 504 791.431 504 808C504 824.569 490.569 838 474 838L251 838C234.431 838 221 824.569 221 808L221 517Z" stroke="#D9D9D9" stroke-opacity="0.3" stroke-width="1" fill="none" vector-effect="non-scaling-stroke"/>
</svg>
